<svg width="16" height="7" viewBox="0 0 16 7" fill="none" xmlns="http://www.w3.org/2000/svg">
<mask id="path-1-inside-1_0_62" fill="white">
<path d="M14.7486 1.02769C14.7486 1.50104 14.7486 1.97234 14.7486 2.4457C14.7486 3.18984 14.7486 3.93606 14.7486 4.6802C14.7486 4.87037 14.763 5.06674 14.7424 5.25691C14.7506 5.2011 14.7568 5.14736 14.7651 5.09155C14.7527 5.17423 14.732 5.25278 14.7031 5.32926C14.7238 5.27965 14.7444 5.23004 14.7651 5.18043C14.7444 5.23004 14.7196 5.27759 14.6907 5.32306C14.6183 5.43675 14.7238 5.28172 14.7258 5.28379C14.7279 5.28792 14.67 5.3458 14.6638 5.352C14.6452 5.3706 14.6225 5.38714 14.6039 5.40574C14.5625 5.44915 14.7486 5.31273 14.6431 5.37267C14.5915 5.40161 14.5439 5.43055 14.4881 5.45535C14.5377 5.43468 14.5873 5.41401 14.6369 5.39334C14.5605 5.42435 14.4798 5.44502 14.3992 5.45535C14.455 5.44708 14.5088 5.44088 14.5646 5.43262C14.4199 5.44915 14.269 5.43882 14.1243 5.43882C13.8142 5.43882 13.5042 5.43882 13.1941 5.43882C12.1585 5.43882 11.1208 5.43882 10.0852 5.43882C8.83467 5.43882 7.58409 5.43882 6.33558 5.43882C5.25243 5.43882 4.16929 5.43882 3.08614 5.43882C2.57351 5.43882 2.06087 5.44088 1.54824 5.43882C1.50483 5.43882 1.46142 5.43675 1.42008 5.43262C1.47589 5.44088 1.52963 5.44708 1.58545 5.45535C1.50276 5.44295 1.42421 5.42228 1.34773 5.39334C1.39734 5.41401 1.44695 5.43468 1.49656 5.45535C1.44695 5.43468 1.39941 5.40988 1.35393 5.38094C1.24024 5.30859 1.39527 5.41401 1.39321 5.41608C1.38907 5.41815 1.33119 5.36027 1.32499 5.35407C1.30639 5.33546 1.28985 5.31273 1.27125 5.29412C1.22784 5.25278 1.36427 5.43882 1.30432 5.3334C1.27538 5.28172 1.24645 5.23418 1.22164 5.17837C1.24231 5.22798 1.26298 5.27758 1.28365 5.32719C1.25265 5.25071 1.23198 5.1701 1.22164 5.08948C1.22991 5.14529 1.23611 5.19904 1.24438 5.25485C1.22784 5.09775 1.23818 4.93238 1.23818 4.77529C1.23818 4.45076 1.23818 4.12623 1.23818 3.8017C1.23818 3.04928 1.23818 2.29687 1.23818 1.54239C1.23818 1.36875 1.23818 1.19512 1.23818 1.02148C0.884707 1.16825 0.533305 1.31294 0.179836 1.4597C0.520903 1.73669 0.892976 1.94753 1.32086 2.06742C1.72807 2.18318 2.15389 2.20592 2.57351 2.15011C3.33626 2.04675 4.05973 1.66434 4.54343 1.06076C4.25197 1.06076 3.95844 1.06076 3.66699 1.06076C4.08867 1.5858 4.72119 1.9744 5.38266 2.10876C6.12267 2.26173 6.89162 2.15631 7.55515 1.7925C7.88795 1.6106 8.19387 1.35635 8.43159 1.06076C8.14013 1.06076 7.84661 1.06076 7.55515 1.06076C7.97683 1.5858 8.60936 1.9744 9.27082 2.10876C10.0108 2.26173 10.7798 2.15631 11.4433 1.7925C11.7761 1.6106 12.082 1.35635 12.3198 1.06076C12.0283 1.06076 11.7348 1.06076 11.4433 1.06076C11.9043 1.6354 12.6091 2.03642 13.3368 2.13977C14.1677 2.25759 15.0214 2.07569 15.6932 1.55686C15.8276 1.4535 15.9309 1.35635 15.9785 1.18685C16.0198 1.03802 16.0012 0.841649 15.9165 0.709357C15.8317 0.577064 15.7035 0.461308 15.5465 0.424101C15.3956 0.388961 15.1971 0.386894 15.069 0.486113C14.885 0.628741 14.6865 0.744496 14.4736 0.835448C14.5233 0.814777 14.5729 0.794106 14.6225 0.773435C14.4261 0.854051 14.2215 0.909863 14.0106 0.940869C14.0664 0.932601 14.1202 0.926399 14.176 0.91813C13.9527 0.947069 13.7274 0.949137 13.5042 0.920198C13.56 0.928467 13.6137 0.934667 13.6696 0.942936C13.4484 0.91193 13.2334 0.854052 13.0267 0.767234C13.0763 0.787905 13.1259 0.808576 13.1755 0.829247C13.0804 0.787905 12.9874 0.74243 12.8965 0.688686C12.8572 0.665948 12.8158 0.641143 12.7786 0.614271C12.758 0.599801 12.7352 0.585332 12.7146 0.570863C12.6939 0.556393 12.6153 0.496448 12.7022 0.564662C12.791 0.634942 12.7063 0.566728 12.6918 0.556393C12.6753 0.54399 12.6608 0.529522 12.6443 0.517119C12.605 0.484046 12.5678 0.448905 12.5306 0.411698C12.4562 0.33935 12.388 0.262869 12.3239 0.182253C12.235 0.0706315 12.0242 -0.00584985 11.8857 0.000351368C11.7327 0.00655258 11.5487 0.0561621 11.4474 0.182253C11.3834 0.262869 11.3152 0.33935 11.2407 0.411698C11.2077 0.444771 11.1746 0.475778 11.1395 0.506784C11.1208 0.523321 11.1002 0.539856 11.0816 0.556393C11.063 0.572929 10.9844 0.632875 11.0712 0.564662C11.1601 0.494381 11.0754 0.560527 11.0588 0.570863C11.0423 0.583265 11.0258 0.593601 11.0072 0.606003C10.9638 0.634942 10.9203 0.661814 10.8749 0.688686C10.786 0.740363 10.6909 0.787905 10.5958 0.829247C10.6454 0.808576 10.695 0.787905 10.7446 0.767234C10.5379 0.854052 10.325 0.91193 10.1018 0.942936C10.1576 0.934667 10.2113 0.928467 10.2671 0.920198C10.0501 0.94707 9.831 0.94707 9.61189 0.920198C9.6677 0.928467 9.72144 0.934667 9.77725 0.942936C9.55608 0.91193 9.3411 0.854052 9.13439 0.767234C9.184 0.787905 9.23361 0.808576 9.28322 0.829247C9.18814 0.787905 9.09512 0.74243 9.00417 0.688686C8.96489 0.665948 8.92355 0.641143 8.88634 0.614271C8.86567 0.599801 8.84294 0.585332 8.82226 0.570863C8.80159 0.556393 8.72304 0.496448 8.80986 0.564662C8.89875 0.634942 8.814 0.566728 8.79953 0.556393C8.78299 0.54399 8.76852 0.529522 8.75198 0.517119C8.71271 0.484046 8.6755 0.448905 8.6383 0.411698C8.56388 0.33935 8.49567 0.262869 8.43159 0.182253C8.3427 0.0706315 8.13186 -0.00584985 7.99337 0.000351368C7.8404 0.00655258 7.65644 0.0561621 7.55515 0.182253C7.49107 0.262869 7.42286 0.33935 7.34844 0.411698C7.31537 0.444771 7.2823 0.475778 7.24716 0.506784C7.22855 0.523321 7.20788 0.539856 7.18928 0.556393C7.17067 0.572929 7.09213 0.632875 7.17894 0.564662C7.26783 0.494381 7.18308 0.560527 7.16654 0.570863C7.15 0.583265 7.13347 0.593601 7.11486 0.606003C7.07145 0.634942 7.02805 0.661814 6.98257 0.688686C6.89369 0.740363 6.80067 0.787905 6.70352 0.829247C6.75313 0.808576 6.80273 0.787905 6.85234 0.767234C6.64564 0.854052 6.43273 0.91193 6.20949 0.942936C6.2653 0.934667 6.31904 0.928467 6.37485 0.920198C6.15781 0.94707 5.9387 0.94707 5.71959 0.920198C5.7754 0.928467 5.82914 0.934667 5.88496 0.942936C5.66378 0.91193 5.4488 0.854052 5.24416 0.767234C5.29377 0.787905 5.34338 0.808576 5.39299 0.829247C5.29791 0.787905 5.20489 0.74243 5.11394 0.688686C5.07466 0.665948 5.03332 0.641143 4.99611 0.614271C4.97544 0.599801 4.95271 0.585332 4.93203 0.570863C4.91136 0.556393 4.83282 0.496448 4.91963 0.564662C5.00852 0.634942 4.92377 0.566728 4.9093 0.556393C4.89276 0.54399 4.87829 0.529522 4.86175 0.517119C4.82248 0.484046 4.78527 0.448905 4.74807 0.411698C4.67365 0.33935 4.60544 0.262869 4.54136 0.182253C4.45247 0.0706315 4.24163 -0.00584985 4.10314 0.000351368C3.95018 0.00655258 3.76621 0.0561621 3.66492 0.182253C3.60084 0.262869 3.53263 0.33935 3.45821 0.411698C3.42514 0.444771 3.39207 0.475778 3.35693 0.506784C3.33832 0.523321 3.31765 0.539856 3.29905 0.556393C3.28044 0.572929 3.2019 0.632875 3.28871 0.564662C3.3776 0.494381 3.29285 0.560527 3.27631 0.570863C3.25977 0.583265 3.24324 0.593601 3.22463 0.606003C3.18122 0.634942 3.13782 0.661814 3.09441 0.688686C3.00552 0.740363 2.91251 0.787905 2.81742 0.829247C2.86703 0.808576 2.91664 0.787905 2.96625 0.767234C2.75954 0.854052 2.54663 0.91193 2.32546 0.942936C2.38127 0.934667 2.43501 0.928467 2.49082 0.920198C2.26758 0.949137 2.04227 0.947069 1.81696 0.91813C1.87277 0.926399 1.92651 0.932601 1.98232 0.940869C1.77148 0.909863 1.56477 0.854051 1.3684 0.773435C1.41801 0.794106 1.46762 0.814777 1.51723 0.835448C1.41595 0.792039 1.31879 0.744497 1.22371 0.688686C1.18237 0.663881 1.14102 0.637009 1.09968 0.610138C1.07695 0.595668 1.05627 0.579131 1.03354 0.564662C0.942585 0.50265 1.14929 0.655612 1.05834 0.583265C0.857836 0.422033 0.630458 0.349686 0.380342 0.455107C0.155031 0.550192 4.47087e-07 0.773435 4.47087e-07 1.02148C4.47087e-07 1.79457 4.47087e-07 2.56559 4.47087e-07 3.33867C4.47087e-07 3.80996 4.47087e-07 4.28332 4.47087e-07 4.75462C4.47087e-07 5.19697 -0.00206671 5.63519 0.274921 6.01346C0.576714 6.42481 1.02527 6.67286 1.54204 6.68113C1.57098 6.68113 1.60198 6.68113 1.63092 6.68113C1.81696 6.68113 2.00093 6.68113 2.18696 6.68113C2.93938 6.68113 3.69386 6.68113 4.44627 6.68113C5.49635 6.68113 6.54642 6.68113 7.59649 6.68113C8.67964 6.68113 9.76072 6.68113 10.8439 6.68113C11.6934 6.68113 12.5451 6.68113 13.3946 6.68113C13.7502 6.68113 14.1036 6.68526 14.4592 6.68113C14.9821 6.67492 15.441 6.41654 15.7408 5.99279C15.9227 5.73441 15.9991 5.41401 15.9991 5.09982C15.9991 4.76702 15.9991 4.43629 15.9991 4.10349C15.9991 3.14023 15.9991 2.17904 15.9991 1.21579C15.9991 1.15171 15.9991 1.08763 15.9991 1.02355C15.9991 0.699022 15.7139 0.388961 15.379 0.40343C15.0318 0.424101 14.7486 0.680417 14.7486 1.02769Z"/>
</mask>
<path d="M14.7486 1.02769C14.7486 1.50104 14.7486 1.97234 14.7486 2.4457C14.7486 3.18984 14.7486 3.93606 14.7486 4.6802C14.7486 4.87037 14.763 5.06674 14.7424 5.25691C14.7506 5.2011 14.7568 5.14736 14.7651 5.09155C14.7527 5.17423 14.732 5.25278 14.7031 5.32926C14.7238 5.27965 14.7444 5.23004 14.7651 5.18043C14.7444 5.23004 14.7196 5.27759 14.6907 5.32306C14.6183 5.43675 14.7238 5.28172 14.7258 5.28379C14.7279 5.28792 14.67 5.3458 14.6638 5.352C14.6452 5.3706 14.6225 5.38714 14.6039 5.40574C14.5625 5.44915 14.7486 5.31273 14.6431 5.37267C14.5915 5.40161 14.5439 5.43055 14.4881 5.45535C14.5377 5.43468 14.5873 5.41401 14.6369 5.39334C14.5605 5.42435 14.4798 5.44502 14.3992 5.45535C14.455 5.44708 14.5088 5.44088 14.5646 5.43262C14.4199 5.44915 14.269 5.43882 14.1243 5.43882C13.8142 5.43882 13.5042 5.43882 13.1941 5.43882C12.1585 5.43882 11.1208 5.43882 10.0852 5.43882C8.83467 5.43882 7.58409 5.43882 6.33558 5.43882C5.25243 5.43882 4.16929 5.43882 3.08614 5.43882C2.57351 5.43882 2.06087 5.44088 1.54824 5.43882C1.50483 5.43882 1.46142 5.43675 1.42008 5.43262C1.47589 5.44088 1.52963 5.44708 1.58545 5.45535C1.50276 5.44295 1.42421 5.42228 1.34773 5.39334C1.39734 5.41401 1.44695 5.43468 1.49656 5.45535C1.44695 5.43468 1.39941 5.40988 1.35393 5.38094C1.24024 5.30859 1.39527 5.41401 1.39321 5.41608C1.38907 5.41815 1.33119 5.36027 1.32499 5.35407C1.30639 5.33546 1.28985 5.31273 1.27125 5.29412C1.22784 5.25278 1.36427 5.43882 1.30432 5.3334C1.27538 5.28172 1.24645 5.23418 1.22164 5.17837C1.24231 5.22798 1.26298 5.27758 1.28365 5.32719C1.25265 5.25071 1.23198 5.1701 1.22164 5.08948C1.22991 5.14529 1.23611 5.19904 1.24438 5.25485C1.22784 5.09775 1.23818 4.93238 1.23818 4.77529C1.23818 4.45076 1.23818 4.12623 1.23818 3.8017C1.23818 3.04928 1.23818 2.29687 1.23818 1.54239C1.23818 1.36875 1.23818 1.19512 1.23818 1.02148C0.884707 1.16825 0.533305 1.31294 0.179836 1.4597C0.520903 1.73669 0.892976 1.94753 1.32086 2.06742C1.72807 2.18318 2.15389 2.20592 2.57351 2.15011C3.33626 2.04675 4.05973 1.66434 4.54343 1.06076C4.25197 1.06076 3.95844 1.06076 3.66699 1.06076C4.08867 1.5858 4.72119 1.9744 5.38266 2.10876C6.12267 2.26173 6.89162 2.15631 7.55515 1.7925C7.88795 1.6106 8.19387 1.35635 8.43159 1.06076C8.14013 1.06076 7.84661 1.06076 7.55515 1.06076C7.97683 1.5858 8.60936 1.9744 9.27082 2.10876C10.0108 2.26173 10.7798 2.15631 11.4433 1.7925C11.7761 1.6106 12.082 1.35635 12.3198 1.06076C12.0283 1.06076 11.7348 1.06076 11.4433 1.06076C11.9043 1.6354 12.6091 2.03642 13.3368 2.13977C14.1677 2.25759 15.0214 2.07569 15.6932 1.55686C15.8276 1.4535 15.9309 1.35635 15.9785 1.18685C16.0198 1.03802 16.0012 0.841649 15.9165 0.709357C15.8317 0.577064 15.7035 0.461308 15.5465 0.424101C15.3956 0.388961 15.1971 0.386894 15.069 0.486113C14.885 0.628741 14.6865 0.744496 14.4736 0.835448C14.5233 0.814777 14.5729 0.794106 14.6225 0.773435C14.4261 0.854051 14.2215 0.909863 14.0106 0.940869C14.0664 0.932601 14.1202 0.926399 14.176 0.91813C13.9527 0.947069 13.7274 0.949137 13.5042 0.920198C13.56 0.928467 13.6137 0.934667 13.6696 0.942936C13.4484 0.91193 13.2334 0.854052 13.0267 0.767234C13.0763 0.787905 13.1259 0.808576 13.1755 0.829247C13.0804 0.787905 12.9874 0.74243 12.8965 0.688686C12.8572 0.665948 12.8158 0.641143 12.7786 0.614271C12.758 0.599801 12.7352 0.585332 12.7146 0.570863C12.6939 0.556393 12.6153 0.496448 12.7022 0.564662C12.791 0.634942 12.7063 0.566728 12.6918 0.556393C12.6753 0.54399 12.6608 0.529522 12.6443 0.517119C12.605 0.484046 12.5678 0.448905 12.5306 0.411698C12.4562 0.33935 12.388 0.262869 12.3239 0.182253C12.235 0.0706315 12.0242 -0.00584985 11.8857 0.000351368C11.7327 0.00655258 11.5487 0.0561621 11.4474 0.182253C11.3834 0.262869 11.3152 0.33935 11.2407 0.411698C11.2077 0.444771 11.1746 0.475778 11.1395 0.506784C11.1208 0.523321 11.1002 0.539856 11.0816 0.556393C11.063 0.572929 10.9844 0.632875 11.0712 0.564662C11.1601 0.494381 11.0754 0.560527 11.0588 0.570863C11.0423 0.583265 11.0258 0.593601 11.0072 0.606003C10.9638 0.634942 10.9203 0.661814 10.8749 0.688686C10.786 0.740363 10.6909 0.787905 10.5958 0.829247C10.6454 0.808576 10.695 0.787905 10.7446 0.767234C10.5379 0.854052 10.325 0.91193 10.1018 0.942936C10.1576 0.934667 10.2113 0.928467 10.2671 0.920198C10.0501 0.94707 9.831 0.94707 9.61189 0.920198C9.6677 0.928467 9.72144 0.934667 9.77725 0.942936C9.55608 0.91193 9.3411 0.854052 9.13439 0.767234C9.184 0.787905 9.23361 0.808576 9.28322 0.829247C9.18814 0.787905 9.09512 0.74243 9.00417 0.688686C8.96489 0.665948 8.92355 0.641143 8.88634 0.614271C8.86567 0.599801 8.84294 0.585332 8.82226 0.570863C8.80159 0.556393 8.72304 0.496448 8.80986 0.564662C8.89875 0.634942 8.814 0.566728 8.79953 0.556393C8.78299 0.54399 8.76852 0.529522 8.75198 0.517119C8.71271 0.484046 8.6755 0.448905 8.6383 0.411698C8.56388 0.33935 8.49567 0.262869 8.43159 0.182253C8.3427 0.0706315 8.13186 -0.00584985 7.99337 0.000351368C7.8404 0.00655258 7.65644 0.0561621 7.55515 0.182253C7.49107 0.262869 7.42286 0.33935 7.34844 0.411698C7.31537 0.444771 7.2823 0.475778 7.24716 0.506784C7.22855 0.523321 7.20788 0.539856 7.18928 0.556393C7.17067 0.572929 7.09213 0.632875 7.17894 0.564662C7.26783 0.494381 7.18308 0.560527 7.16654 0.570863C7.15 0.583265 7.13347 0.593601 7.11486 0.606003C7.07145 0.634942 7.02805 0.661814 6.98257 0.688686C6.89369 0.740363 6.80067 0.787905 6.70352 0.829247C6.75313 0.808576 6.80273 0.787905 6.85234 0.767234C6.64564 0.854052 6.43273 0.91193 6.20949 0.942936C6.2653 0.934667 6.31904 0.928467 6.37485 0.920198C6.15781 0.94707 5.9387 0.94707 5.71959 0.920198C5.7754 0.928467 5.82914 0.934667 5.88496 0.942936C5.66378 0.91193 5.4488 0.854052 5.24416 0.767234C5.29377 0.787905 5.34338 0.808576 5.39299 0.829247C5.29791 0.787905 5.20489 0.74243 5.11394 0.688686C5.07466 0.665948 5.03332 0.641143 4.99611 0.614271C4.97544 0.599801 4.95271 0.585332 4.93203 0.570863C4.91136 0.556393 4.83282 0.496448 4.91963 0.564662C5.00852 0.634942 4.92377 0.566728 4.9093 0.556393C4.89276 0.54399 4.87829 0.529522 4.86175 0.517119C4.82248 0.484046 4.78527 0.448905 4.74807 0.411698C4.67365 0.33935 4.60544 0.262869 4.54136 0.182253C4.45247 0.0706315 4.24163 -0.00584985 4.10314 0.000351368C3.95018 0.00655258 3.76621 0.0561621 3.66492 0.182253C3.60084 0.262869 3.53263 0.33935 3.45821 0.411698C3.42514 0.444771 3.39207 0.475778 3.35693 0.506784C3.33832 0.523321 3.31765 0.539856 3.29905 0.556393C3.28044 0.572929 3.2019 0.632875 3.28871 0.564662C3.3776 0.494381 3.29285 0.560527 3.27631 0.570863C3.25977 0.583265 3.24324 0.593601 3.22463 0.606003C3.18122 0.634942 3.13782 0.661814 3.09441 0.688686C3.00552 0.740363 2.91251 0.787905 2.81742 0.829247C2.86703 0.808576 2.91664 0.787905 2.96625 0.767234C2.75954 0.854052 2.54663 0.91193 2.32546 0.942936C2.38127 0.934667 2.43501 0.928467 2.49082 0.920198C2.26758 0.949137 2.04227 0.947069 1.81696 0.91813C1.87277 0.926399 1.92651 0.932601 1.98232 0.940869C1.77148 0.909863 1.56477 0.854051 1.3684 0.773435C1.41801 0.794106 1.46762 0.814777 1.51723 0.835448C1.41595 0.792039 1.31879 0.744497 1.22371 0.688686C1.18237 0.663881 1.14102 0.637009 1.09968 0.610138C1.07695 0.595668 1.05627 0.579131 1.03354 0.564662C0.942585 0.50265 1.14929 0.655612 1.05834 0.583265C0.857836 0.422033 0.630458 0.349686 0.380342 0.455107C0.155031 0.550192 4.47087e-07 0.773435 4.47087e-07 1.02148C4.47087e-07 1.79457 4.47087e-07 2.56559 4.47087e-07 3.33867C4.47087e-07 3.80996 4.47087e-07 4.28332 4.47087e-07 4.75462C4.47087e-07 5.19697 -0.00206671 5.63519 0.274921 6.01346C0.576714 6.42481 1.02527 6.67286 1.54204 6.68113C1.57098 6.68113 1.60198 6.68113 1.63092 6.68113C1.81696 6.68113 2.00093 6.68113 2.18696 6.68113C2.93938 6.68113 3.69386 6.68113 4.44627 6.68113C5.49635 6.68113 6.54642 6.68113 7.59649 6.68113C8.67964 6.68113 9.76072 6.68113 10.8439 6.68113C11.6934 6.68113 12.5451 6.68113 13.3946 6.68113C13.7502 6.68113 14.1036 6.68526 14.4592 6.68113C14.9821 6.67492 15.441 6.41654 15.7408 5.99279C15.9227 5.73441 15.9991 5.41401 15.9991 5.09982C15.9991 4.76702 15.9991 4.43629 15.9991 4.10349C15.9991 3.14023 15.9991 2.17904 15.9991 1.21579C15.9991 1.15171 15.9991 1.08763 15.9991 1.02355C15.9991 0.699022 15.7139 0.388961 15.379 0.40343C15.0318 0.424101 14.7486 0.680417 14.7486 1.02769Z" fill="#7C7C8D" stroke="#7C7C8D" stroke-width="2" mask="url(#path-1-inside-1_0_62)"/>
</svg>
