<svg width="20" height="17" viewBox="0 0 20 17" fill="none" xmlns="http://www.w3.org/2000/svg">
<path fill-rule="evenodd" clip-rule="evenodd" d="M2.72729 0H17.2726C18.7789 0 19.9999 1.26605 19.9999 2.82781V3.22816C20 3.23805 20 3.24795 19.9999 3.25783V13.1964C19.9999 14.7582 18.7789 16.0242 17.2726 16.0242H2.72729C1.22108 16.0242 4.34265e-05 14.7582 4.34265e-05 13.1964V3.25222C-1.44492e-05 3.24607 -1.45017e-05 3.23992 4.34265e-05 3.23377V2.82781C4.34265e-05 1.26605 1.22108 0 2.72729 0ZM1.8184 5.05434V13.1965C1.8184 13.7171 2.22541 14.1391 2.72749 14.1391H17.2728C17.7749 14.1391 18.1819 13.7171 18.1819 13.1965V5.05412L11.564 9.85748C10.6249 10.539 9.37507 10.539 8.43602 9.85748L1.8184 5.05434ZM18.1792 2.75488L10.5213 8.31306C10.2083 8.54025 9.79169 8.54025 9.47867 8.31306L1.82107 2.7551C1.8569 2.26852 2.24903 1.88527 2.72749 1.88527H17.2728C17.7512 1.88527 18.1433 2.2684 18.1792 2.75488Z" fill="#7C7C8D"/>
</svg>
