<svg width="18" height="20" viewBox="0 0 18 20" fill="none" xmlns="http://www.w3.org/2000/svg">
<path d="M9 1.52246C8.63614 1.52248 8.28438 1.65471 8.01074 1.89453L2.01074 7.13867C1.85072 7.27909 1.72178 7.45262 1.63379 7.64648C1.54588 7.84027 1.50027 8.05087 1.5 8.26367V17.0039C1.50008 17.4014 1.65826 17.7825 1.93945 18.0635C2.22078 18.3445 2.6024 18.5019 3 18.502H5.5V13.0088C5.5 12.3469 5.76365 11.7114 6.23242 11.2432C6.70117 10.7751 7.33692 10.5117 8 10.5117H10C10.6632 10.5117 11.2998 10.7749 11.7686 11.2432C12.2372 11.7114 12.5 12.347 12.5 13.0088V18.502H15C15.3976 18.502 15.7792 18.3445 16.0605 18.0635C16.3418 17.7825 16.4999 17.4015 16.5 17.0039V8.26367L16.4912 8.10449C16.4741 7.94647 16.4322 7.79184 16.3662 7.64648C16.2782 7.45263 16.1503 7.27909 15.9902 7.13867H15.9893L9.98926 1.89453C9.71561 1.65475 9.36385 1.52246 9 1.52246ZM8 11.5098C7.6024 11.5098 7.22078 11.6673 6.93945 11.9482C6.65811 12.2293 6.5 12.6111 6.5 13.0088V18.502H11.5V13.0088C11.5 12.6111 11.3419 12.2293 11.0605 11.9482C10.7792 11.6673 10.3976 11.5098 10 11.5098H8ZM0.5 8.27051C0.497179 7.91601 0.570231 7.56446 0.713867 7.24023C0.857483 6.91609 1.06841 6.62603 1.33301 6.38965L1.33203 6.38867L7.3291 1.13965L7.33301 1.13574C7.79131 0.726314 8.38492 0.500023 9 0.5C9.61509 0.5 10.2087 0.726333 10.667 1.13574L10.6709 1.13965L16.667 6.38867V6.38965C16.9306 6.62514 17.1416 6.91362 17.2852 7.23633C17.4287 7.55903 17.5016 7.90863 17.5 8.26172V17.0039C17.4999 17.6656 17.2371 18.3004 16.7686 18.7686C16.2998 19.2368 15.6632 19.5 15 19.5H3C2.33686 19.5 1.70118 19.2367 1.23242 18.7686C0.763722 18.3004 0.500085 17.6657 0.5 17.0039V8.27051Z" fill="#7C7C8D" stroke="#7C7C8D"/>
</svg>
