<svg width="16" height="16" viewBox="0 0 16 16" fill="none" xmlns="http://www.w3.org/2000/svg">
<path d="M2.71501 2.71501C5.62793 -0.197917 10.3699 -0.197841 13.2829 2.71501C16.1959 5.62797 16.1959 10.37 13.2829 13.2829C11.8217 14.7397 9.90786 15.4696 7.99689 15.4696C6.08128 15.4696 4.17164 14.7396 2.71501 13.2829C-0.197842 10.3699 -0.197917 5.62793 2.71501 2.71501ZM7.99689 1.10216C6.23128 1.10216 4.46406 1.77769 3.119 3.11796V3.119C0.428183 5.80981 0.428184 10.184 3.119 12.8748C5.80981 15.5656 10.184 15.5656 12.8748 12.8748C15.5656 10.184 15.5656 5.80981 12.8748 3.119V3.11796L12.6179 2.87453C11.309 1.69585 9.65228 1.10217 7.99689 1.10216Z" fill="#7C7C8D" stroke="#7C7C8D"/>
</svg>
